HIERARCHY
ROOT joint_Root
{
	OFFSET 0.0 0.0 0.0
	CHANNELS 6 Xposition Yposition Zposition Zrotation Xrotation Yrotation 
	JOINT Hips
	{
		OFFSET -17.1583 93.1646 452.98
		CHANNELS 6 Xposition Yposition Zposition Zrotation Xrotation Yrotation 
		JOINT Spine
		{
			OFFSET 15.7357 0.0 0.0
			CHANNELS 6 Xposition Yposition Zposition Zrotation Xrotation Yrotation 
			JOINT Chest
			{
				OFFSET 8.98455 -0.406207 0.0
				CHANNELS 6 Xposition Yposition Zposition Zrotation Xrotation Yrotation 
				JOINT Neck
				{
					OFFSET 16.3773 0.0 0.0
					CHANNELS 6 Xposition Yposition Zposition Zrotation Xrotation Yrotation 
					JOINT Head
					{
						OFFSET 6.45672 0.0 0.0
						CHANNELS 6 Xposition Yposition Zposition Zrotation Xrotation Yrotation 
						End Site
						{
							OFFSET 0.0 0.0 0.0
						}
					}
				}
				JOINT Shoulder_L
				{
					OFFSET 12.9942 -0.242716 4.98039
					CHANNELS 6 Xposition Yposition Zposition Zrotation Xrotation Yrotation 
					JOINT UpperArm_L
					{
						OFFSET 5.34809 0.0 0.0
						CHANNELS 6 Xposition Yposition Zposition Zrotation Xrotation Yrotation 
						JOINT LowerArm_L
						{
							OFFSET 24.3286 1.87007e-05 0.0
							CHANNELS 6 Xposition Yposition Zposition Zrotation Xrotation Yrotation 
							JOINT Hand_L
							{
								OFFSET 22.2916 0.0 0.0
								CHANNELS 6 Xposition Yposition Zposition Zrotation Xrotation Yrotation 
								End Site
								{
									OFFSET 0.0 0.0 0.0
								}
							}
						}
					}
				}
				JOINT Shoulder_R
				{
					OFFSET 12.9945 -0.242716 -4.98039
					CHANNELS 6 Xposition Yposition Zposition Zrotation Xrotation Yrotation 
					JOINT UpperArm_R
					{
						OFFSET -5.34813 0.0 0.0
						CHANNELS 6 Xposition Yposition Zposition Zrotation Xrotation Yrotation 
						JOINT LowerArm_R
						{
							OFFSET -24.3289 0.000322201 0.0
							CHANNELS 6 Xposition Yposition Zposition Zrotation Xrotation Yrotation 
							JOINT Hand_R
							{
								OFFSET -22.2915 -0.000108084 0.0
								CHANNELS 6 Xposition Yposition Zposition Zrotation Xrotation Yrotation 
								End Site
								{
									OFFSET 0.0 0.0 0.0
								}
							}
						}
					}
				}
			}
		}
		JOINT UpperLeg_L
		{
			OFFSET -2.19248 -6.46944 0.0
			CHANNELS 6 Xposition Yposition Zposition Zrotation Xrotation Yrotation 
			JOINT LowerLeg_L
			{
				OFFSET 39.0811 0.0 -1.23785e-05
				CHANNELS 6 Xposition Yposition Zposition Zrotation Xrotation Yrotation 
				JOINT Foot_L
				{
					OFFSET 40.9854 0.0 -1.26872e-05
					CHANNELS 6 Xposition Yposition Zposition Zrotation Xrotation Yrotation 
					JOINT Toes_L
					{
						OFFSET 11.7543 0.0 0.0
						CHANNELS 6 Xposition Yposition Zposition Zrotation Xrotation Yrotation 
						End Site
						{
							OFFSET 0.0 0.0 0.0
						}
					}
				}
			}
		}
		JOINT UpperLeg_R
		{
			OFFSET -2.19251 6.46944 0.0
			CHANNELS 6 Xposition Yposition Zposition Zrotation Xrotation Yrotation 
			JOINT LowerLeg_R
			{
				OFFSET -39.0811 -0.00228153 -0.0401928
				CHANNELS 6 Xposition Yposition Zposition Zrotation Xrotation Yrotation 
				JOINT Foot_R
				{
					OFFSET -40.9854 0.0 0.0
					CHANNELS 6 Xposition Yposition Zposition Zrotation Xrotation Yrotation 
					JOINT Toes_R
					{
						OFFSET -11.7543 0.0 0.0
						CHANNELS 6 Xposition Yposition Zposition Zrotation Xrotation Yrotation 
						End Site
						{
							OFFSET 0.0 0.0 0.0
						}
					}
				}
			}
		}
	}
}
MOTION
Frames:	8
Frame Time:	0.0333333
0.000000 0.000000 0.000000 0.000000 0.000000 -0.000000 6.109890 92.685300 539.928000 -94.101800 0.742319 174.822000 15.735700 0.000005 -0.000001 115.651000 86.114600 -116.082000 8.984550 -0.406207 -0.000000 -0.747951 3.395150 -0.839008 16.377300 -0.000001 -0.000001 2.549120 1.922640 -2.387430 6.456720 -0.000001 -0.000000 0.267916 -1.243730 -2.753070 12.994200 -0.242716 4.980390 -92.677500 6.864180 -68.630400 5.348090 -0.000007 -0.000001 -75.597500 -3.272450 8.029450 24.328600 0.000019 0.000005 15.319700 25.395900 -32.567400 22.291600 -0.000001 0.000005 48.420700 4.510600 16.424100 12.994500 -0.242716 -4.980390 89.040200 3.478560 -74.565200 -5.348130 -0.000001 -0.000004 -75.635700 21.656100 -1.732410 -24.328900 0.000322 -0.000009 4.731590 3.201820 -55.995200 -22.291500 -0.000108 -0.000004 44.837900 5.453440 -4.763090 -2.192480 -6.469440 -0.000000 178.430000 1.033670 -28.718600 39.081100 -0.000007 -0.000012 0.020441 -0.056020 20.046600 40.985400 -0.000006 -0.000013 -5.079670 10.149600 -59.190300 11.754300 -0.000000 0.000003 0.002435 0.096013 -12.683200 -2.192510 6.469440 -0.000001 -177.951000 37.269300 177.322000 -39.081100 -0.002282 -0.040193 0.056330 -0.233594 12.782500 -40.985400 0.000008 0.000006 -2.136500 -8.031460 -76.219400 -11.754300 -0.000006 -0.000006 -0.002051 0.197026 -8.579750
0.000000 0.000000 0.000000 0.000000 0.000000 -0.000000 6.102910 92.358000 538.403000 -93.852400 1.410530 174.787000 15.735700 0.000005 -0.000001 117.339000 86.129000 -117.701000 8.984550 -0.406207 -0.000000 -0.877335 3.582080 -0.694801 16.377300 -0.000001 -0.000001 2.742480 2.114460 -2.645410 6.456720 -0.000001 -0.000000 0.310071 -1.061490 -3.005460 12.994200 -0.242716 4.980390 -92.751100 7.023360 -68.545900 5.348090 -0.000007 -0.000001 -74.270900 -5.623810 7.945170 24.328600 0.000019 0.000005 16.544000 25.683300 -34.426700 22.291600 -0.000001 0.000005 48.933200 4.504980 16.517700 12.994500 -0.242716 -4.980390 89.013200 3.567420 -74.526800 -5.348130 -0.000001 -0.000004 -75.569700 22.008100 -2.245710 -24.328900 0.000322 -0.000009 4.361040 3.195380 -53.843900 -22.291500 -0.000108 -0.000004 44.934800 5.459110 -4.967570 -2.192480 -6.469440 -0.000000 178.345000 -0.371347 -28.417500 39.081100 -0.000007 -0.000012 0.021003 -0.082040 14.360400 40.985400 -0.000006 -0.000013 -5.723090 9.795270 -58.562100 11.754300 -0.000000 0.000003 0.002479 0.088733 -12.978300 -2.192510 6.469440 -0.000001 -178.447000 36.349700 178.102000 -39.081100 -0.002282 -0.040193 0.059494 -0.233155 13.543100 -40.985400 0.000008 0.000006 -2.355860 -8.509910 -76.946200 -11.754300 -0.000006 -0.000006 -0.002988 0.208132 -8.127890
0.000000 0.000000 0.000000 0.000000 0.000000 -0.000000 6.131550 91.950600 536.565000 -93.503600 2.467590 174.767000 15.735700 0.000005 -0.000001 118.792000 86.210900 -119.059000 8.984550 -0.406207 -0.000000 -1.116270 3.669820 -0.498972 16.377300 -0.000001 -0.000001 3.063450 2.484860 -2.950550 6.456720 -0.000001 -0.000000 0.405212 -0.533507 -3.244550 12.994200 -0.242716 4.980390 -92.798600 7.127770 -68.497400 5.348090 -0.000007 -0.000001 -72.634500 -8.201260 8.145370 24.328600 0.000019 0.000005 16.230100 24.606000 -34.958200 22.291600 -0.000001 0.000005 49.118200 4.483410 16.872400 12.994500 -0.242716 -4.980390 88.966200 3.707620 -74.408400 -5.348130 -0.000001 -0.000004 -75.457900 22.432000 -2.956840 -24.328900 0.000322 -0.000009 3.657630 2.950700 -51.162500 -22.291500 -0.000108 -0.000004 44.842300 5.454370 -4.796610 -2.192480 -6.469440 -0.000000 178.406000 -1.930320 -27.854200 39.081100 -0.000007 -0.000012 0.019282 -0.120558 9.087370 40.985400 -0.000006 -0.000013 -6.197440 8.985680 -58.061600 11.754300 -0.000000 0.000003 0.002487 0.084328 -13.156800 -2.192510 6.469440 -0.000001 -179.039000 35.012800 179.142000 -39.081100 -0.002282 -0.040193 0.064112 -0.238088 14.320900 -40.985400 0.000008 0.000006 -3.129250 -8.810510 -77.709900 -11.754300 -0.000006 -0.000006 -0.004186 0.221026 -7.602950
0.000000 0.000000 0.000000 0.000000 0.000000 -0.000000 6.158410 91.507100 534.303000 -93.139200 3.285160 174.742000 15.735700 0.000005 -0.000001 118.014000 86.417500 -118.161000 8.984550 -0.406207 -0.000000 -1.436660 3.376400 -0.252035 16.377300 -0.000001 -0.000001 3.401490 2.963290 -3.213030 6.456720 -0.000001 -0.000000 0.535739 0.232724 -3.516630 12.994200 -0.242716 4.980390 -92.877500 7.327880 -68.491800 5.348090 -0.000007 -0.000001 -70.712300 -10.550400 8.470240 24.328600 0.000019 0.000005 15.697300 24.066000 -34.573400 22.291600 -0.000001 0.000005 49.027700 4.442680 17.537100 12.994500 -0.242716 -4.980390 88.880500 3.955730 -74.184100 -5.348130 -0.000001 -0.000004 -75.196100 22.772000 -3.608150 -24.328900 0.000322 -0.000009 3.201060 2.857300 -48.301400 -22.291500 -0.000108 -0.000004 44.786400 5.459110 -4.968920 -2.192480 -6.469440 -0.000000 178.469000 -3.195290 -28.736300 39.081100 -0.000007 -0.000012 0.013852 -0.101256 7.790430 40.985400 -0.000006 -0.000013 -6.207570 7.735620 -59.134200 11.754300 -0.000000 0.000003 0.002487 0.083031 -13.209400 -2.192510 6.469440 -0.000001 -179.962000 34.417700 -178.913000 -39.081100 -0.002282 -0.040193 0.043983 -0.160967 14.173300 -40.985400 0.000008 0.000006 -4.351910 -8.510420 -78.189100 -11.754300 -0.000006 -0.000006 -0.005904 0.237633 -6.926130
0.000000 0.000000 0.000000 0.000000 0.000000 -0.000000 6.111480 90.975800 531.840000 -92.851400 4.585660 174.203000 15.735700 0.000005 -0.000001 120.013000 86.788600 -120.112000 8.984550 -0.406207 -0.000000 -2.202940 3.220380 -0.135416 16.377300 -0.000001 -0.000001 3.713090 3.508290 -3.453000 6.456720 -0.000001 -0.000000 0.753936 1.185430 -3.635990 12.994200 -0.242716 4.980390 -92.946800 7.515670 -68.517200 5.348090 -0.000007 -0.000001 -68.517100 -12.719700 9.023530 24.328600 0.000019 0.000005 14.348600 22.929100 -33.287500 22.291600 -0.000001 0.000005 48.676700 4.448180 17.447500 12.994500 -0.242716 -4.980390 88.816200 4.126540 -73.977900 -5.348130 -0.000001 -0.000004 -75.005200 23.137100 -3.848040 -24.328900 0.000322 -0.000009 2.701210 2.660320 -45.476200 -22.291500 -0.000108 -0.000004 44.893600 5.470920 -5.405670 -2.192480 -6.469440 -0.000000 178.124000 -5.104540 -30.195200 39.081100 -0.000007 -0.000012 0.011802 -0.087893 7.648210 40.985400 -0.000006 -0.000013 -6.190550 6.647420 -60.164100 11.754300 -0.000000 0.000003 0.002467 0.091454 -12.868000 -2.192510 6.469440 -0.000001 179.250000 32.980500 -177.527000 -39.081100 -0.002282 -0.040193 0.027226 -0.095083 14.106300 -40.985400 0.000008 0.000006 -5.928270 -8.301730 -78.781700 -11.754300 -0.000006 -0.000006 -0.006748 0.245150 -6.619480
0.000000 0.000000 0.000000 0.000000 0.000000 -0.000000 5.922500 90.435800 529.079000 -92.752600 6.358020 173.633000 15.735700 0.000005 -0.000001 123.939000 87.137500 -124.114000 8.984550 -0.406207 -0.000000 -3.013620 3.211420 -0.264934 16.377300 -0.000001 -0.000001 3.877320 4.199240 -3.552020 6.456720 -0.000001 -0.000000 0.962524 2.231240 -3.623570 12.994200 -0.242716 4.980390 -92.985700 7.585390 -68.440000 5.348090 -0.000007 -0.000001 -66.437100 -14.718300 9.452710 24.328600 0.000019 0.000005 12.553800 21.540600 -31.235500 22.291600 -0.000001 0.000005 47.903500 4.470540 17.083900 12.994500 -0.242716 -4.980390 88.767000 4.299340 -73.981300 -5.348130 -0.000001 -0.000004 -74.824700 23.294000 -3.683770 -24.328900 0.000322 -0.000009 2.589880 2.811750 -42.693400 -22.291500 -0.000108 -0.000004 44.393600 5.479490 -5.729070 -2.192480 -6.469440 -0.000000 177.392000 -7.313290 -31.219500 39.081100 -0.000007 -0.000012 0.013244 -0.096879 7.784580 40.985400 -0.000006 -0.000013 -6.433540 5.976420 -60.105000 11.754300 -0.000000 0.000003 0.002452 0.093758 -12.774600 -2.192510 6.469440 -0.000001 177.875000 30.396700 -175.607000 -39.081100 -0.002282 -0.040193 -0.026798 0.127453 13.301200 -40.985400 0.000008 0.000006 -9.316410 -8.000070 -79.073400 -11.754300 -0.000006 -0.000006 -0.005990 0.238411 -6.894370
0.000000 0.000000 0.000000 0.000000 0.000000 -0.000000 5.647360 89.882400 525.929000 -92.453600 8.250170 173.408000 15.735700 0.000005 -0.000001 126.557000 87.345300 -126.685000 8.984550 -0.406207 -0.000000 -3.500190 3.173340 -0.159041 16.377300 -0.000001 -0.000001 3.675150 4.834800 -3.673220 6.456720 -0.000001 -0.000000 1.109320 3.383800 -3.704620 12.994200 -0.242716 4.980390 -93.122600 7.913550 -68.384700 5.348090 -0.000007 -0.000001 -64.516300 -16.437400 10.029900 24.328600 0.000019 0.000005 11.132000 20.537500 -29.287500 22.291600 -0.000001 0.000005 46.796500 4.495220 16.679100 12.994500 -0.242716 -4.980390 88.757600 4.320280 -73.938900 -5.348130 -0.000001 -0.000004 -74.481100 23.261500 -3.667650 -24.328900 0.000322 -0.000009 2.570590 3.144010 -39.315000 -22.291500 -0.000108 -0.000004 44.492900 5.488310 -6.069200 -2.192480 -6.469440 -0.000000 177.161000 -9.035450 -31.177700 39.081100 -0.000007 -0.000012 0.020078 -0.140162 8.152210 40.985400 -0.000006 -0.000013 -7.084770 6.599710 -59.193100 11.754300 -0.000000 0.000003 0.002435 0.095940 -12.686100 -2.192510 6.469440 -0.000001 176.222000 27.889600 -173.334000 -39.081100 -0.002282 -0.040193 -0.068822 0.315892 12.866800 -40.985400 0.000008 0.000006 -12.790800 -7.348370 -78.758900 -11.754300 -0.000006 -0.000006 -0.004143 0.220590 -7.620720
0.000000 0.000000 0.000000 0.000000 0.000000 -0.000000 5.264660 89.361600 522.329000 -92.093300 9.953940 173.542000 15.735700 0.000005 -0.000001 126.621000 87.483500 -126.627000 8.984550 -0.406207 -0.000000 -3.728950 3.001060 0.087538 16.377300 -0.000001 -0.000001 3.444860 5.470990 -3.654870 6.456720 -0.000001 -0.000000 1.094110 4.536710 -3.884120 12.994200 -0.242716 4.980390 -93.248900 8.261240 -68.443300 5.348090 -0.000007 -0.000001 -63.300600 -17.609900 10.545700 24.328600 0.000019 0.000005 10.353000 20.570900 -27.471200 22.291600 -0.000001 0.000005 45.987900 4.483070 16.879600 12.994500 -0.242716 -4.980390 88.768000 4.288340 -73.955100 -5.348130 -0.000001 -0.000004 -73.911100 22.688100 -3.661830 -24.328900 0.000322 -0.000009 2.454300 3.512850 -34.988300 -22.291500 -0.000108 -0.000004 44.327900 5.490350 -6.149220 -2.192480 -6.469440 -0.000000 176.990000 -9.433320 -33.633100 39.081100 -0.000007 -0.000012 0.033380 -0.116997 15.924000 40.985400 -0.000006 -0.000013 -3.096430 7.921620 -61.732100 11.754300 -0.000000 0.000003 0.002377 0.101463 -12.462200 -2.192510 6.469440 -0.000001 174.533000 25.339100 -171.935000 -39.081100 -0.002282 -0.040193 -0.080906 0.316868 14.887300 -40.985400 0.000008 0.000006 -14.694600 -7.196540 -78.328700 -11.754300 -0.000006 -0.000006 -0.001187 0.185703 -9.040080
